<svg xmlns="http://www.w3.org/2000/svg" viewBox="0 0 612.38 686.94"><g id="Layer_2" data-name="Layer 2"><g id="Layer_1-2" data-name="Layer 1"><path d="M268.19,370.14,225.32,252.31c8-3.12,15.71-2.72,23.41-.8,10.26,2.55,19,7.93,26.78,14.93,1.36,1.21,3.89,2.28,5.47,1.87,26.91-7,53.75-14.27,80.61-21.49.25-.06.43-.41,1.12-1.11l-72.66-47,6-10.69c-26.52-16.47-41.48-40.28-43.48-71.55-1.25-19.58,4.24-37.54,15.22-53.83,22.3-33.11,70.68-50.76,115.85-26.5L390,25.8l33.28,17,7.88-13.6C447.26,1.34,481.29-8.16,508.49,7.59c27,15.64,35.85,49.73,20.06,77.41-1.63,2.86-3.28,5.71-5.22,9.08l89,45.69L500.08,334.3c-2.18-1.36-4.11-2.52-6-3.75-25.75-16.62-51.46-33.31-77.31-49.78a10.22,10.22,0,0,0-7.26-1.14c-35.76,9.37-71.44,19-107.17,28.45-3.8,1-5.21,2.23-5,6.66.79,17.66-3.7,33.75-16.76,46.44C277.18,364.46,272.88,366.8,268.19,370.14ZM371,58.36c-15.49-11.11-41.59-11.9-60.37-1.53-22.37,12.36-33.94,31.73-33.34,57.2.54,22.71,11.48,40.07,31.26,52.46ZM501.3,82.81c2.84-5.16,5.78-9.63,7.89-14.47,8.87-20.32-6.28-43.58-28.42-43.49-18,.08-27,11-34.7,29.65Z"/><path d="M10.54,686.94c.9-2.06,1.53-3.73,2.34-5.3C33,642.86,64.44,619.73,107.66,613c3.85-.61,5.3-1.76,5.25-5.87-.23-17.33-.09-34.67-.11-52,0-1.62-.14-3.24-.24-5.27C74.29,551.19,43.05,537.87,20,507.27,1.76,483-1.76,455,.7,425.68c67.19-8.83,119.21,34.95,124.48,93.2,3.79-30.17,17.29-54.8,41.5-73.25,24.52-18.69,52.7-22.64,82.7-20.09,3.12,33.06-2.46,63.87-25.6,89.53-22.89,25.39-52,36.22-86.12,34.63v62.36c32,3.87,59.12,17.37,80.72,41.46a117.49,117.49,0,0,1,21.22,33.42Z"/><path d="M110.34,415.77a12.35,12.35,0,1,1,12.55-12.15A12.3,12.3,0,0,1,110.34,415.77Z"/><path d="M185,300.08a12.33,12.33,0,1,1,.39,24.66,12.33,12.33,0,0,1-.39-24.66Z"/><path d="M160.22,363.58a12.27,12.27,0,1,1-24.53-.08,12.27,12.27,0,1,1,24.53.08Z"/><path d="M135.21,329.26a12.27,12.27,0,1,1-12.37-12.21A12.19,12.19,0,0,1,135.21,329.26Z"/><path d="M77.45,362.67a12.27,12.27,0,1,1-.09,24.54,12.27,12.27,0,1,1,.09-24.54Z"/><path d="M197.25,362.13a12.23,12.23,0,1,1,1-24.44,12.23,12.23,0,1,1-1,24.44Z"/></g></g></svg>